<svg xmlns="http://www.w3.org/2000/svg" version="1.1" xmlns:xlink="http://www.w3.org/1999/xlink" xmlns:svgjs="http://svgjs.dev/svgjs" width="1500" height="1500" viewBox="0 0 1500 1500"><rect width="1500" height="1500" fill="#000000"></rect><g transform="matrix(0.6666666666666666,0,0,0.6666666666666666,249.39393939393938,435.99032258064517)"><svg viewBox="0 0 396 248" data-background-color="#ffffff" preserveAspectRatio="xMidYMid meet" height="939" width="1500" xmlns="http://www.w3.org/2000/svg" xmlns:xlink="http://www.w3.org/1999/xlink"><g id="tight-bounds" transform="matrix(1,0,0,1,0.2400000000000091,0.4000000000000057)"><svg viewBox="0 0 395.52 247.2" height="247.2" width="395.52"><g><svg></svg></g><g><svg viewBox="0 0 395.52 247.2" height="247.2" width="395.52"><g transform="matrix(1,0,0,1,75.54432000000001,78.02432674514445)"><svg viewBox="0 0 244.43135999999996 91.15134650971109" height="91.15134650971109" width="244.43135999999996"><g><svg viewBox="0 0 244.43135999999996 91.15134650971109" height="91.15134650971109" width="244.43135999999996"><g><svg viewBox="0 0 244.43135999999996 91.15134650971109" height="91.15134650971109" width="244.43135999999996"><g><svg viewBox="0 0 244.43135999999996 91.15134650971109" height="91.15134650971109" width="244.43135999999996"><g id="textblocktransform"><svg viewBox="0 0 244.43135999999996 91.15134650971109" height="91.15134650971109" width="244.43135999999996" id="textblock"><g><svg viewBox="0 0 244.43135999999996 59.355699446840894" height="59.355699446840894" width="244.43135999999996"><g transform="matrix(1,0,0,1,0,0)"><svg width="244.43135999999996" viewBox="1.95 -34.6 197.02 47.85" height="59.355699446840894" data-palette-color="#aa9903"><path d="M7.45 0.85L7.45 0.85Q5.1 0.85 3.93 0.3 2.75-0.25 2.35-1.07 1.95-1.9 1.95-2.7L1.95-2.7 1.95-3.05Q1.95-3.45 2.2-4.13 2.45-4.8 3.3-4.8L3.3-4.8Q3.7-4.8 3.75-4.17 3.8-3.55 4.2-2.85L4.2-2.85Q5-1.55 6.25-1.15 7.5-0.75 9.4-0.75L9.4-0.75Q11.05-0.75 12.93-1.3 14.8-1.85 16.45-2.85 18.1-3.85 19.13-5.25 20.15-6.65 20.15-8.4L20.15-8.4Q20.15-10 19.03-11.05 17.9-12.1 16.1-12.9 14.3-13.7 12.33-14.43 10.35-15.15 8.55-16.15 6.75-17.15 5.63-18.6 4.5-20.05 4.5-22.25L4.5-22.25Q4.5-24.4 5.73-26.35 6.95-28.3 9.08-29.83 11.2-31.35 13.88-32.23 16.55-33.1 19.45-33.1L19.45-33.1Q21.6-33.1 22.65-32.33 23.7-31.55 24.08-30.43 24.45-29.3 24.45-28.15L24.45-28.15Q24.45-27.9 24.3-27.3 24.15-26.7 23.83-26.23 23.5-25.75 23.05-25.75L23.05-25.75Q22.7-25.75 22.7-26.4L22.7-26.4 22.7-27.4Q22.7-29.7 21.33-30.48 19.95-31.25 17.9-31.25L17.9-31.25Q16.55-31.25 14.63-30.78 12.7-30.3 10.85-29.33 9-28.35 7.78-26.95 6.55-25.55 6.55-23.65L6.55-23.65Q6.55-23.55 6.58-23.43 6.6-23.3 6.6-23.2L6.6-23.2Q6.85-21.1 8.13-19.73 9.4-18.35 11.25-17.45 13.1-16.55 15.13-15.85 17.15-15.15 18.9-14.4 20.65-13.65 21.75-12.63 22.85-11.6 22.85-9.95L22.85-9.95Q22.85-8 21.6-6.08 20.35-4.15 18.2-2.58 16.05-1 13.28-0.08 10.5 0.85 7.45 0.85ZM36.25 0.4L36.25 0.4Q35.6 0.4 35.3 0L35.3 0 28.75 0Q28.25 0 28.25-0.35L28.25-0.35Q28.25-0.7 28.67-1.13 29.1-1.55 29.6-1.55L29.6-1.55 35.15-1.55Q35.8-8.3 36.57-15.15 37.35-22 38.6-28.4L38.6-28.4 38.6-29.9Q38.6-30.2 38.65-30.4 38.7-30.6 38.7-30.9L38.7-30.9 32.9-30.9Q32.4-30.9 32.4-31.25L32.4-31.25Q32.4-31.6 32.82-32.02 33.25-32.45 33.75-32.45L33.75-32.45 39.2-32.45Q39.45-33 40.12-33.27 40.8-33.55 42.1-33.55L42.1-33.55Q42.85-33.55 42.85-33.05L42.85-33.05 42.85-32.95 42.55-32.5Q44.65-32.5 46.42-32.52 48.2-32.55 49-32.6L49-32.6Q49.3-32.6 49.3-32.3L49.3-32.3Q49.3-32 48.85-31.53 48.4-31.05 47.4-30.9L47.4-30.9 41.95-30.9 41.95-30.8Q41.1-28.4 40.4-25.18 39.7-21.95 39.15-18.45 38.6-14.95 38.25-11.73 37.9-8.5 37.7-6 37.5-3.5 37.5-2.35L37.5-2.35Q37.5-1.8 37.65-1.55L37.65-1.55Q39.95-1.6 41.97-1.63 44-1.65 44.85-1.7L44.85-1.7Q45.15-1.7 45.15-1.4L45.15-1.4Q45.15-1.1 44.7-0.63 44.25-0.15 43.25 0L43.25 0 37.35 0Q36.85 0.4 36.25 0.4ZM73.05 0.45L73.05 0.45Q72.15 0.45 72.15-0.65L72.15-0.65 72.5-4.75Q71.84-6.8 70.95-8.1L70.95-8.1Q70.05-9.3 68.55-10.93 67.05-12.55 65.32-14.3 63.6-16.05 62.02-17.68 60.45-19.3 59.4-20.5L59.4-20.5Q57.4-22.8 56.85-24.35 56.3-25.9 56.25-27.35L56.25-27.35Q55.45-24.75 54.82-21.48 54.2-18.2 53.75-14.9 53.3-11.6 53.07-8.8 52.85-6 52.85-4.35L52.85-4.35Q52.85-3.85 52.87-3.2 52.9-2.55 52.9-1.95L52.9-1.95Q52.9 0 52.2 0L52.2 0Q51.7 0 51.25-0.6 50.8-1.2 50.8-1.9L50.8-1.9Q50.9-3.75 51.2-6.4 51.5-9.05 51.92-12.03 52.35-15 52.82-17.95 53.3-20.9 53.72-23.4 54.15-25.9 54.45-27.55L54.45-27.55Q54.4-27.8 54.4-28.03 54.4-28.25 54.4-28.45L54.4-28.45Q54.4-30.75 55.22-31.78 56.05-32.8 57.4-32.8L57.4-32.8Q57.9-32.8 58.22-32.7 58.55-32.6 58.55-32.35L58.55-32.35Q58.55-31.85 58.22-31.13 57.9-30.4 57.57-29.75 57.25-29.1 57.25-28.8L57.25-28.8Q57.25-27.3 58.3-25.6 59.35-23.9 61.05-22.03 62.75-20.15 64.8-18.18 66.84-16.2 68.87-14.1 70.9-12 72.5-9.85L72.5-9.85 72.95-9.25 73.75-16.6Q74.05-19.25 74.4-21.8 74.75-24.35 75.2-26.9L75.2-26.9 75.2-28.4Q75.2-29.5 75.4-30.5 75.59-31.5 76.25-32.15 76.9-32.8 78.3-32.8L78.3-32.8Q79.05-32.8 79.05-32.3L79.05-32.3 79.05-32.2Q77.7-29.1 76.72-24.85 75.75-20.6 75.09-15.93 74.45-11.25 74.15-6.95L74.15-6.95Q74.45-6.15 74.57-5.33 74.7-4.5 74.7-3.8L74.7-3.8Q74.7-2.95 74.55-2.23 74.4-1.5 74.2-1L74.2-1 74.2-0.7Q74.09-0.15 73.75 0.15 73.4 0.45 73.05 0.45ZM95.44 0.1L95.44 0.1Q94.89 0.1 94.62-0.05 94.34-0.2 94.34-0.7L94.34-0.7Q94.34-2.05 94.57-4.63 94.79-7.2 95.17-10.4 95.54-13.6 96.02-16.98 96.49-20.35 96.99-23.43 97.49-26.5 97.94-28.7L97.94-28.7 97.94-28.8Q97.94-29 97.87-29.13 97.79-29.25 97.79-29.45L97.79-29.45Q97.79-29.75 97.94-30.45 98.09-31.15 98.19-31.5L98.19-31.5 97.89-31.5Q97.39-31.5 96.87-31.45 96.34-31.4 95.94-31.4L95.94-31.4Q94.84-31.45 94.84-31.8L94.84-31.8Q94.84-32.3 96.07-32.48 97.29-32.65 98.49-32.65L98.49-32.65Q98.64-33.5 99.52-34.05 100.39-34.6 101.64-34.6L101.64-34.6Q102.44-34.6 102.44-34L102.44-34Q102.19-33.4 102.02-33.23 101.84-33.05 101.64-32.45L101.64-32.45Q102.94-32.35 104.72-32.08 106.49-31.8 108.34-31.3 110.19-30.8 111.79-29.95 113.39-29.1 114.39-27.8 115.39-26.5 115.39-24.65L115.39-24.65Q115.39-22.95 114.62-21.38 113.84-19.8 112.62-18.5 111.39-17.2 110.04-16.28 108.69-15.35 107.49-14.95L107.49-14.95Q105.79-14.35 103.87-14.13 101.94-13.9 100.34-13.9L100.34-13.9Q99.14-13.9 98.32-13.98 97.49-14.05 97.24-14.15L97.24-14.15Q97.09-13.3 96.92-11.6 96.74-9.9 96.64-7.83 96.54-5.75 96.54-3.7L96.54-3.7Q96.54-2.45 96.69-1.63 96.84-0.8 96.84-0.85L96.84-0.85Q96.84-0.6 96.72-0.58 96.59-0.55 96.54-0.4L96.54-0.4Q96.44-0.15 96.12-0.03 95.79 0.1 95.44 0.1ZM100.69-15.15L100.69-15.15Q101.39-15.15 102.09-15.18 102.79-15.2 103.29-15.25L103.29-15.25Q104.74-15.4 106.47-16.1 108.19-16.8 109.72-17.98 111.24-19.15 112.22-20.75 113.19-22.35 113.19-24.35L113.19-24.35Q113.19-26.1 111.94-27.35 110.69-28.6 108.79-29.43 106.89-30.25 104.87-30.7 102.84-31.15 101.24-31.3L101.24-31.3Q100.89-30.55 100.42-29 99.94-27.45 99.49-25.5 99.04-23.55 98.62-21.58 98.19-19.6 97.92-17.98 97.64-16.35 97.54-15.45L97.54-15.45Q97.69-15.3 98.64-15.23 99.59-15.15 100.69-15.15ZM113.04 0.3L113.04 0.3Q112.74 0.3 112.59 0.05L112.59 0.05Q112.59-1.25 112.91-2.38 113.24-3.5 113.74-3.7L113.74-3.7Q114.44-6.3 114.79-7.73 115.14-9.15 115.29-9.85 115.44-10.55 115.54-10.98 115.64-11.4 115.79-12L115.79-12Q115.89-12.25 115.89-12.45 115.89-12.65 115.89-12.8L115.89-12.8Q115.89-13.2 115.79-13.28 115.69-13.35 115.69-13.65L115.69-13.65Q115.69-13.75 115.71-13.88 115.74-14 115.79-14.2L115.79-14.2Q116.59-17.3 117.39-18.48 118.19-19.65 119.84-19.65L119.84-19.65Q120.44-19.65 120.54-19.25L120.54-19.25Q120.29-18.55 119.46-16.63 118.64-14.7 117.71-12.15 116.79-9.6 116.19-7L116.19-7Q116.59-7.75 117.46-9.22 118.34-10.7 119.51-12.45 120.69-14.2 122.04-15.78 123.39-17.35 124.66-18.38 125.94-19.4 126.99-19.4L126.99-19.4Q127.59-19.4 127.89-18.98 128.19-18.55 128.19-17.9L128.19-17.9Q128.19-17.25 127.89-16.4 127.59-15.55 127.04-14.75L127.04-14.75Q126.69-14.25 126.01-13.7 125.34-13.15 124.94-13.15L124.94-13.15Q124.64-13.15 124.64-13.45L124.64-13.45Q124.64-13.7 124.89-14.28 125.14-14.85 125.36-15.48 125.59-16.1 125.59-16.5L125.59-16.5Q125.59-16.85 125.34-16.85L125.34-16.85Q124.44-16.85 123.06-15.35 121.69-13.85 120.14-11.43 118.59-9 117.24-6.23 115.89-3.45 115.09-0.9L115.09-0.9Q114.79-0.5 114.14-0.1 113.49 0.3 113.04 0.3ZM129.74 0.95L129.74 0.95Q128.49 0.95 127.66-0.08 126.84-1.1 126.84-3.25L126.84-3.25Q126.84-3.75 126.89-4.33 126.94-4.9 127.04-5.55L127.04-5.55Q127.19-6.4 127.66-8.03 128.14-9.65 128.89-11.55 129.64-13.45 130.61-15.18 131.59-16.9 132.76-18 133.94-19.1 135.29-19.1L135.29-19.1 135.64-19.1Q135.64-19.75 136.04-20.28 136.44-20.8 137.14-20.8L137.14-20.8Q137.69-20.75 137.94-19.88 138.19-19 138.36-17.88 138.54-16.75 138.89-15.88 139.24-15 139.99-14.9L139.99-14.9Q140.94-14.75 140.94-14.35L140.94-14.35Q140.94-13.95 139.99-13.45L139.99-13.45Q139.64-13.3 139.34-13.25 139.04-13.2 138.84-13.2L138.84-13.2Q138.84-10.05 137.94-7.45 137.04-4.85 135.61-2.98 134.19-1.1 132.64-0.08 131.09 0.95 129.74 0.95ZM130.49-0.55L130.49-0.55Q131.39-0.55 132.56-1.58 133.74-2.6 134.84-4.42 135.94-6.25 136.69-8.6 137.44-10.95 137.44-13.6L137.44-13.6Q137.04-13.85 136.66-14.65 136.29-15.45 135.99-16.18 135.69-16.9 135.44-16.9L135.44-16.9Q134.74-16.9 133.94-15.93 133.14-14.95 132.39-13.48 131.64-12 130.99-10.35 130.34-8.7 129.89-7.28 129.44-5.85 129.29-5.1L129.29-5.1Q129.19-4.45 129.14-3.93 129.09-3.4 129.09-3L129.09-3Q129.09-0.55 130.49-0.55ZM148.43-22.6L148.43-22.6Q148.18-22.6 147.96-23.03 147.73-23.45 147.61-23.95 147.48-24.45 147.43-24.65L147.43-24.65Q147.43-25.4 148.28-26.15 149.13-26.9 150.16-27.4 151.18-27.9 151.68-27.9L151.68-27.9Q152.38-27.9 152.38-27.45L152.38-27.45Q152.38-27 151.48-26.5L151.48-26.5Q150.63-26 150.21-25.08 149.78-24.15 149.43-23.38 149.08-22.6 148.43-22.6ZM134.93 13.25L134.93 13.25Q133.03 13.25 132.11 12.5 131.18 11.75 130.93 10.68 130.68 9.6 130.68 8.65L130.68 8.65Q130.68 7.35 131.01 6.4 131.33 5.45 131.63 5.45L131.63 5.45Q131.83 5.45 131.88 5.75L131.88 5.75 131.88 6.25Q131.88 9 132.91 10.68 133.93 12.35 135.33 12.35L135.33 12.35Q136.43 12.35 137.56 11.15 138.68 9.95 139.48 7.3L139.48 7.3Q140.53 3.9 141.38 1.05 142.23-1.8 143.08-4.88 143.93-7.95 144.93-11.95L144.93-11.95Q145.03-12.25 145.03-12.45 145.03-12.65 145.03-12.8L145.03-12.8Q145.03-13.1 144.96-13.23 144.88-13.35 144.88-13.55L144.88-13.55Q144.88-13.65 144.91-13.8 144.93-13.95 144.98-14.15L144.98-14.15Q145.78-17.2 146.56-18.3 147.33-19.4 148.98-19.4L148.98-19.4Q149.63-19.4 149.78-18.95L149.78-18.95Q147.63-13.8 145.96-7.8 144.28-1.8 143.03 3.7L143.03 3.7Q142.18 7.5 140.78 9.58 139.38 11.65 137.83 12.45 136.28 13.25 134.93 13.25ZM153.18 0.5L153.18 0.5Q152.58 0.5 151.81 0.23 151.03-0.05 150.46-0.78 149.88-1.5 149.88-2.85L149.88-2.85Q149.88-3.4 150.03-4.15L150.03-4.15Q150.53-6.65 151.01-7.95 151.48-9.25 151.58-10.05L151.58-10.05Q151.43-10.1 151.13-10.3 150.83-10.5 150.83-10.85L150.83-10.85Q150.83-11.2 151.13-11.3 151.43-11.4 151.68-11.4L151.68-11.4 152.03-11.4Q152.43-12.25 152.91-13.25 153.38-14.25 154.33-15.95L154.33-15.95Q155.18-17.55 156.56-18.07 157.93-18.6 159.68-18.6L159.68-18.6Q161.38-18.6 162.03-15.55L162.03-15.55Q162.33-14 162.33-13.05L162.33-13.05Q162.33-11.85 161.56-11.15 160.78-10.45 159.66-10.1 158.53-9.75 157.43-9.63 156.33-9.5 155.68-9.5L155.68-9.5Q155.03-9.5 154.56-9.53 154.08-9.55 153.88-9.55L153.88-9.55Q153.13-7.65 152.68-5.9 152.23-4.15 152.23-2.95L152.23-2.95Q152.23-0.95 153.73-0.95L153.73-0.95Q154.63-0.95 155.61-1.75 156.58-2.55 157.48-3.6 158.38-4.65 159.03-5.45 159.68-6.25 159.88-6.25L159.88-6.25Q160.23-6.25 160.23-5.85L160.23-5.85Q160.23-5.15 159.43-4.08 158.63-3 157.46-1.95 156.28-0.9 155.11-0.2 153.93 0.5 153.18 0.5ZM156.33-10.85L156.33-10.85Q158.23-10.85 159.21-11.28 160.18-11.7 160.23-13.15L160.23-13.15Q160.23-15.2 159.71-16.05 159.18-16.9 158.73-16.9L158.73-16.9Q158.13-16.9 157.46-16.18 156.78-15.45 156.16-14.45 155.53-13.45 155.03-12.48 154.53-11.5 154.33-10.95L154.33-10.95Q154.58-10.95 155.13-10.9 155.68-10.85 156.33-10.85ZM164.78 0.4L164.78 0.4Q163.48 0.4 162.6-0.45 161.73-1.3 161.73-3.15L161.73-3.15Q161.73-4.95 162.38-7.18 163.03-9.4 164.03-11.53 165.03-13.65 166.05-15.18 167.08-16.7 167.88-17.05L167.88-17.05Q169.43-17.6 170.28-18.18 171.13-18.75 172.38-18.75L172.38-18.75Q173.38-18.75 174.05-18.25 174.73-17.75 174.73-16.4L174.73-16.4Q174.73-16.2 174.73-16.03 174.73-15.85 174.68-15.6L174.68-15.6Q174.53-14.7 174.08-14.2 173.63-13.7 173.23-13.7L173.23-13.7Q172.63-13.7 172.63-14.6L172.63-14.6Q172.63-15.1 172.83-15.73 173.03-16.35 173.03-16.85L173.03-16.85Q173.03-17.65 172.18-17.65L172.18-17.65Q171.73-17.65 170.95-17.23 170.18-16.8 169.45-16.25 168.73-15.7 168.38-15.35L168.38-15.35Q167.98-14.95 167.23-13.5 166.48-12.05 165.7-10.1 164.93-8.15 164.38-6.23 163.83-4.3 163.83-2.95L163.83-2.95Q163.83-1.1 165.28-1.1L165.28-1.1Q166.88-1.1 168.23-1.98 169.58-2.85 170.65-3.98 171.73-5.1 172.38-5.98 173.03-6.85 173.18-6.9L173.18-6.9Q173.43-6.8 173.43-6.55L173.43-6.55Q173.43-6.05 172.7-4.93 171.98-3.8 170.75-2.58 169.53-1.35 167.98-0.48 166.43 0.4 164.78 0.4ZM176.98 0.4L176.98 0.4Q176.33 0.4 176.08 0 175.83-0.4 175.83-1.05L175.83-1.05Q175.83-2.05 176.28-3.43 176.73-4.8 177.03-5.75L177.03-5.75Q178.13-9.2 178.9-12.2 179.68-15.2 180.23-17.2L180.23-17.2Q180.03-17.15 178.88-17.07 177.73-17 176.88-17L176.88-17Q175.73-17 175.73-17.45L175.73-17.45Q175.73-17.85 176.4-18.3 177.08-18.75 177.43-18.75L177.43-18.75 180.63-18.75 180.83-19.45Q180.98-20.05 180.98-20.3L180.98-20.3Q180.98-20.6 180.88-20.7 180.78-20.8 180.78-21L180.78-21Q180.78-21.15 180.93-21.6L180.93-21.6Q181.58-23.7 182.13-24.85 182.68-26 183.38-26.45 184.08-26.9 185.18-26.9L185.18-26.9Q185.93-26.9 185.98-26.45L185.98-26.45Q185.68-25.8 184.83-23.73 183.98-21.65 182.93-18.75L182.93-18.75 187.78-18.75Q189.18-18.75 189.18-18.45L189.18-18.45Q189.18-18.15 188.45-17.95 187.73-17.75 186.63-17.63 185.53-17.5 184.4-17.45 183.28-17.4 182.48-17.4L182.48-17.4Q181.83-15.5 181.05-13.08 180.28-10.65 179.58-8.22 178.88-5.8 178.43-3.9L178.43-3.9Q178.18-2.9 178.18-2.45L178.18-2.45Q178.18-1.6 178.73-1.6L178.73-1.6Q179.38-1.6 180.15-2.13 180.93-2.65 181.65-3.38 182.38-4.1 182.95-4.63 183.53-5.15 183.73-5.15L183.73-5.15Q183.98-5.15 183.98-4.85L183.98-4.85Q183.98-4.55 183.83-4.2 183.68-3.85 183.43-3.75L183.43-3.75Q183.03-3.4 182.23-2.73 181.43-2.05 180.48-1.33 179.53-0.6 178.6-0.1 177.68 0.4 176.98 0.4ZM186.22 0.85L186.22 0.85Q185.82 0.85 185.57 0.53 185.32 0.2 185.32-0.15L185.32-0.15Q185.32-0.75 185.87-0.75L185.87-0.75Q186.47-0.75 187.7-1 188.92-1.25 190.25-1.68 191.57-2.1 192.52-2.7 193.47-3.3 193.47-4L193.47-4Q193.47-4.65 192.75-5.33 192.02-6 190.97-6.7 189.92-7.4 188.85-8.15 187.77-8.9 187.05-9.73 186.32-10.55 186.32-11.5L186.32-11.5Q186.32-11.9 186.45-12.3 186.57-12.7 186.92-13.1L186.92-13.1Q188.42-15 190.2-16.18 191.97-17.35 193.52-17.98 195.07-18.6 195.87-18.9L195.87-18.9Q196.12-19 196.47-19.07 196.82-19.15 197.17-19.15L197.17-19.15Q197.87-19.15 198.42-18.73 198.97-18.3 198.97-17.15L198.97-17.15Q198.92-16.65 198.57-15.88 198.22-15.1 197.7-14.3 197.17-13.5 196.67-12.98 196.17-12.45 195.82-12.45L195.82-12.45Q195.62-12.45 195.62-12.75L195.62-12.75Q195.62-13.2 195.9-13.9 196.17-14.6 196.45-15.28 196.72-15.95 196.72-16.35L196.72-16.35Q196.72-17.1 195.82-17.1L195.82-17.1Q195.47-17.1 195.05-17.03 194.62-16.95 194.17-16.85L194.17-16.85Q193.87-16.8 193.02-16.43 192.17-16.05 191.22-15.45 190.27-14.85 189.57-14.08 188.87-13.3 188.87-12.4L188.87-12.4Q188.87-11.85 189.12-11.4L189.12-11.4Q189.72-10.2 190.77-9.53 191.82-8.85 192.87-8.33 193.92-7.8 194.65-7.18 195.37-6.55 195.37-5.4L195.37-5.4Q195.37-4.2 194.37-3.08 193.37-1.95 191.85-1.07 190.32-0.2 188.8 0.33 187.27 0.85 186.22 0.85Z" opacity="1" transform="matrix(1,0,0,1,0,0)" fill="#ffffff" class="wordmark-text-0" data-fill-palette-color="primary" id="text-0"></path></svg></g></svg></g><g transform="matrix(1,0,0,1,0,73.3681555494533)"><svg viewBox="0 0 244.43135999999996 17.783190960257784" height="17.783190960257784" width="244.43135999999996"><g transform="matrix(1,0,0,1,0,0)"><svg width="244.43135999999996" viewBox="1.35 -38.85 698.18 50.8" height="17.783190960257784" data-palette-color="#aa9903"><path d="M21.65 0L7.6 0 7.6-2.15 13.4-3.2 12.6-2.1 12.6-32.6 13.5-31.85 3.85-31.85 4.85-32.7 3.85-26.35 1.35-26.35 1.35-34.9 27.9-34.9 27.9-26.35 25.4-26.35 24.4-32.6 25.4-31.85 15.75-31.85 16.65-32.6 16.65-2.1 15.9-3.2 21.65-2.15 21.65 0ZM42.15 0L30.45 0 30.45-2.15 35-3.15 34.4-2.4 34.4-35.9 35-35.1 30.45-36.1 30.45-38.25 38.4-38.6 38.4-21.7 37.5-21.9Q39.95-24.45 42.67-25.65 45.4-26.85 47.85-26.85L47.85-26.85Q50.05-26.85 51.8-25.95 53.55-25.05 54.52-23.23 55.5-21.4 55.5-18.6L55.5-18.6 55.5-2.4 55-3.1 59.4-2.15 59.4 0 47.75 0 47.75-2.15 52.05-3.1 51.5-2.35 51.5-17.7Q51.55-20.8 50.1-22.25 48.65-23.7 46.3-23.7L46.3-23.7Q44.5-23.7 42.3-22.7 40.1-21.7 38.05-19.55L38.05-19.55 38.4-20.4 38.4-2.35 37.9-3.05 42.15-2.15 42.15 0ZM74.05 0.45L74.05 0.45Q70.7 0.45 68.12-1.07 65.55-2.6 64.09-5.55 62.65-8.5 62.65-12.75L62.65-12.75Q62.65-17.1 64.15-20.25 65.65-23.4 68.4-25.13 71.15-26.85 74.84-26.85L74.84-26.85Q78.34-26.85 80.62-25.38 82.9-23.9 84.02-21.3 85.15-18.7 85.15-15.35L85.15-15.35Q85.15-14.8 85.09-14.25 85.05-13.7 84.95-12.9L84.95-12.9 65.7-12.9 65.7-15.75 81.45-15.75 81-15.45Q81.05-17.7 80.45-19.6 79.84-21.5 78.4-22.65 76.95-23.8 74.55-23.8L74.55-23.8Q72-23.8 70.25-22.45 68.5-21.1 67.65-18.75 66.8-16.4 66.8-13.3L66.8-13.3Q66.8-10 67.75-7.63 68.7-5.25 70.52-3.95 72.34-2.65 75-2.65L75-2.65Q76.84-2.65 79.05-3.38 81.25-4.1 83.59-5.6L83.59-5.6 85.05-3.35Q82.25-1.45 79.45-0.5 76.65 0.45 74.05 0.45ZM105.54-26.4L105.54-26.4Q105.54-24.5 106.54-23.3 107.54-22.1 109.22-21.33 110.89-20.55 112.89-19.95 114.89-19.35 116.89-18.63 118.89-17.9 120.54-16.82 122.19-15.75 123.22-14.03 124.24-12.3 124.24-9.7L124.24-9.7Q124.24-6.2 122.47-3.95 120.69-1.7 117.74-0.63 114.79 0.45 111.29 0.45L111.29 0.45Q108.79 0.45 106.19-0.08 103.59-0.6 101.09-1.65L101.09-1.65 101.39-9.85 103.84-9.85 104.69-3.45 104.19-4.3Q105.94-3.5 107.84-3.1 109.74-2.7 111.54-2.7L111.54-2.7Q113.89-2.7 115.84-3.43 117.79-4.15 118.99-5.58 120.19-7 120.19-9.15L120.19-9.15Q120.19-11.15 119.17-12.38 118.14-13.6 116.49-14.4 114.84-15.2 112.84-15.8 110.84-16.4 108.84-17.07 106.84-17.75 105.19-18.8 103.54-19.85 102.52-21.53 101.49-23.2 101.49-25.8L101.49-25.8Q101.49-29 103.06-31.13 104.64-33.25 107.37-34.3 110.09-35.35 113.44-35.35L113.44-35.35Q115.79-35.35 118.34-34.85 120.89-34.35 123.34-33.3L123.34-33.3 122.94-25.45 120.44-25.45 119.69-31.45 120.29-30.85Q118.79-31.5 117.04-31.85 115.29-32.2 113.54-32.2L113.54-32.2Q111.49-32.2 109.64-31.63 107.79-31.05 106.67-29.78 105.54-28.5 105.54-26.4ZM142.29-26.85L142.29-26.85Q147.79-26.85 150.91-23.4 154.04-19.95 154.04-13.65L154.04-13.65Q154.04-9.4 152.51-6.23 150.99-3.05 148.19-1.3 145.39 0.45 141.44 0.45L141.44 0.45Q136.04 0.45 132.99-2.93 129.94-6.3 129.94-12.65L129.94-12.65Q129.94-17.05 131.41-20.23 132.89-23.4 135.66-25.13 138.44-26.85 142.29-26.85ZM142.09-23.9L142.09-23.9Q138.24-23.9 136.19-21 134.14-18.1 134.14-12.85L134.14-12.85Q134.14-7.7 136.09-5.1 138.04-2.5 141.69-2.5L141.69-2.5Q144.34-2.5 146.16-3.83 147.99-5.15 148.91-7.6 149.84-10.05 149.84-13.45L149.84-13.45Q149.84-18.55 147.81-21.23 145.79-23.9 142.09-23.9ZM165.49-38.6L165.49-2.55 165.03-3.1 169.39-2.15 169.39 0 157.53 0 157.53-2.15 161.89-3.1 161.49-2.55 161.49-35.65 161.89-35.2 157.53-36.1 157.53-38.25 165.49-38.6ZM182.93 0.45L182.93 0.45Q179.63 0.45 177.48-1.6 175.33-3.65 175.33-7.9L175.33-7.9 175.33-23.85 175.83-23.15 171.38-24.1 171.38-26.25 179.33-26.55 179.33-8.6Q179.33-5.6 180.73-4.15 182.13-2.7 184.48-2.7L184.48-2.7Q186.33-2.7 188.48-3.7 190.63-4.7 192.73-6.8L192.73-6.8 192.43-5.9 192.43-23.95 192.93-23.15 188.48-24.1 188.48-26.25 196.43-26.6 196.43-2.45 195.83-3.1 200.33-2.25 200.33-0.05 193.33 0.25 192.73-4.7 193.28-4.5Q190.83-1.95 188.11-0.75 185.38 0.45 182.93 0.45ZM212.33 0.45L212.33 0.45Q209.73 0.45 208.23-1.18 206.73-2.8 206.73-6.1L206.73-6.1 206.73-24.25 207.38-23.6 202.23-23.6 202.23-25.8 207.43-26.55 206.73-25.75 206.73-32.35 210.73-33 210.73-25.75 210.18-26.4 218.03-26.4 217.88-23.6 210.18-23.6 210.73-24.25 210.73-6.65Q210.73-4.55 211.56-3.6 212.38-2.65 213.88-2.65L213.88-2.65Q214.78-2.65 215.83-2.95 216.88-3.25 218.08-3.8L218.08-3.8 218.93-1.5Q215.38 0.45 212.33 0.45ZM229.48-26.55L229.48-2.55 229.03-3.1 233.38-2.15 233.38 0 221.58 0 221.58-2.15 225.93-3.1 225.48-2.55 225.48-23.65 225.88-23.2 221.58-24.1 221.58-26.25 229.48-26.55ZM227.18-31.95L227.18-31.95Q226.03-31.95 225.28-32.7 224.53-33.45 224.53-34.75L224.53-34.75Q224.53-36.1 225.3-36.83 226.08-37.55 227.23-37.55L227.23-37.55Q228.43-37.55 229.18-36.85 229.93-36.15 229.93-34.75L229.93-34.75Q229.93-33.4 229.13-32.68 228.33-31.95 227.18-31.95ZM249.28-26.85L249.28-26.85Q254.78-26.85 257.9-23.4 261.03-19.95 261.03-13.65L261.03-13.65Q261.03-9.4 259.5-6.23 257.98-3.05 255.18-1.3 252.38 0.45 248.43 0.45L248.43 0.45Q243.03 0.45 239.98-2.93 236.93-6.3 236.93-12.65L236.93-12.65Q236.93-17.05 238.4-20.23 239.88-23.4 242.65-25.13 245.43-26.85 249.28-26.85ZM249.08-23.9L249.08-23.9Q245.23-23.9 243.18-21 241.13-18.1 241.13-12.85L241.13-12.85Q241.13-7.7 243.08-5.1 245.03-2.5 248.68-2.5L248.68-2.5Q251.33-2.5 253.15-3.83 254.98-5.15 255.9-7.6 256.83-10.05 256.83-13.45L256.83-13.45Q256.83-18.55 254.8-21.23 252.78-23.9 249.08-23.9ZM276.87 0L265.22 0 265.22-2.15 269.72-3.15 269.12-2.4 269.12-23.9 269.72-23.15 265.22-24.1 265.22-26.25 272.22-26.6 272.77-21.7 272.22-21.9Q274.72-24.45 277.45-25.65 280.17-26.85 282.62-26.85L282.62-26.85Q285.92-26.85 288.1-24.83 290.27-22.8 290.22-18.55L290.22-18.55 290.22-2.4 289.72-3.1 294.12-2.15 294.12 0 282.47 0 282.47-2.15 286.82-3.1 286.22-2.35 286.22-17.7Q286.22-20.8 284.82-22.25 283.42-23.7 281.07-23.7L281.07-23.7Q279.22-23.7 277.05-22.7 274.87-21.7 272.77-19.6L272.77-19.6 273.12-20.4 273.12-2.35 272.62-3.05 276.87-2.15 276.87 0ZM319.57 0L306.92 0 306.92-2.15 311.32-3.1 310.82-2.5 310.82-23.95 311.32-23.4 306.82-23.4 306.82-25.6 311.42-26.25 310.82-25.5 310.82-29.7Q310.82-34.4 313.24-36.63 315.67-38.85 319.62-38.85L319.62-38.85Q320.92-38.85 322.27-38.63 323.62-38.4 325.12-37.9L325.12-37.9 324.47-35.15Q323.32-35.5 322.27-35.7 321.22-35.9 320.22-35.9L320.22-35.9Q317.77-35.9 316.29-34.5 314.82-33.1 314.82-30.05L314.82-30.05 314.82-25.5 314.17-26.2 321.82-26.2 321.72-23.4 314.32-23.4 314.82-23.95 314.82-2.55 314.32-3.1 319.57-2.15 319.57 0ZM337.06-26.85L337.06-26.85Q342.56-26.85 345.69-23.4 348.81-19.95 348.81-13.65L348.81-13.65Q348.81-9.4 347.29-6.23 345.76-3.05 342.97-1.3 340.17 0.45 336.22 0.45L336.22 0.45Q330.81 0.45 327.76-2.93 324.72-6.3 324.72-12.65L324.72-12.65Q324.72-17.05 326.19-20.23 327.67-23.4 330.44-25.13 333.22-26.85 337.06-26.85ZM336.87-23.9L336.87-23.9Q333.01-23.9 330.97-21 328.92-18.1 328.92-12.85L328.92-12.85Q328.92-7.7 330.87-5.1 332.81-2.5 336.47-2.5L336.47-2.5Q339.12-2.5 340.94-3.83 342.76-5.15 343.69-7.6 344.62-10.05 344.62-13.45L344.62-13.45Q344.62-18.55 342.59-21.23 340.56-23.9 336.87-23.9ZM365.76 0L353.01 0 353.01-2.15 357.41-3.1 356.91-2.35 356.91-23.9 357.46-23.15 353.01-24.1 353.01-26.25 360.01-26.6 360.56-21.7 360.01-21.9Q362.26-24.25 364.41-25.55 366.56-26.85 369.11-26.85L369.11-26.85Q370.71-26.85 372.46-26.35L372.46-26.35 372.16-19.05 369.66-19.05 369.06-24.3 369.51-23.4Q369.16-23.5 368.76-23.55 368.36-23.6 367.96-23.6L367.96-23.6Q365.96-23.6 364.09-22.4 362.21-21.2 360.51-19.3L360.51-19.3 360.91-20.5 360.91-2.35 360.31-3.1 365.76-2.15 365.76 0ZM383.96 11.7L383.96 11.7 384.31 8.75Q384.91 8.85 385.43 8.9 385.96 8.95 386.41 8.95L386.41 8.95Q388.86 8.95 390.38 7.83 391.91 6.7 392.96 4.45 394.01 2.2 395.11-1.15L395.11-1.15 394.96 0.35 385.61-24 386.16-23.55 382.91-24.1 382.91-26.25 393.86-26.6 393.86-24.4 389.36-23.65 389.66-24.1 397.11-2.85 396.21-3.05 403.36-24 403.66-23.55 399.26-24.1 399.26-26.25 409.86-26.6 409.86-24.4 406.36-23.6 407.06-24.05 398.26 0.1Q397.36 2.6 396.38 4.75 395.41 6.9 394.16 8.53 392.91 10.15 391.11 11.05 389.31 11.95 386.76 11.95L386.76 11.95Q385.61 11.95 383.96 11.7ZM424.36-26.85L424.36-26.85Q429.86-26.85 432.98-23.4 436.11-19.95 436.11-13.65L436.11-13.65Q436.11-9.4 434.58-6.23 433.06-3.05 430.26-1.3 427.46 0.45 423.51 0.45L423.51 0.45Q418.11 0.45 415.06-2.93 412.01-6.3 412.01-12.65L412.01-12.65Q412.01-17.05 413.48-20.23 414.96-23.4 417.73-25.13 420.51-26.85 424.36-26.85ZM424.16-23.9L424.16-23.9Q420.31-23.9 418.26-21 416.21-18.1 416.21-12.85L416.21-12.85Q416.21-7.7 418.16-5.1 420.11-2.5 423.76-2.5L423.76-2.5Q426.41-2.5 428.23-3.83 430.06-5.15 430.98-7.6 431.91-10.05 431.91-13.45L431.91-13.45Q431.91-18.55 429.88-21.23 427.86-23.9 424.16-23.9ZM450.75 0.45L450.75 0.45Q447.45 0.45 445.3-1.6 443.15-3.65 443.15-7.9L443.15-7.9 443.15-23.85 443.65-23.15 439.2-24.1 439.2-26.25 447.15-26.55 447.15-8.6Q447.15-5.6 448.55-4.15 449.95-2.7 452.3-2.7L452.3-2.7Q454.15-2.7 456.3-3.7 458.45-4.7 460.55-6.8L460.55-6.8 460.25-5.9 460.25-23.95 460.75-23.15 456.3-24.1 456.3-26.25 464.25-26.6 464.25-2.45 463.65-3.1 468.15-2.25 468.15-0.05 461.15 0.25 460.55-4.7 461.1-4.5Q458.65-1.95 455.93-0.75 453.2 0.45 450.75 0.45ZM484.05 0L471.3 0 471.3-2.15 475.7-3.1 475.2-2.35 475.2-23.9 475.75-23.15 471.3-24.1 471.3-26.25 478.3-26.6 478.85-21.7 478.3-21.9Q480.55-24.25 482.7-25.55 484.85-26.85 487.4-26.85L487.4-26.85Q489-26.85 490.75-26.35L490.75-26.35 490.45-19.05 487.95-19.05 487.35-24.3 487.8-23.4Q487.45-23.5 487.05-23.55 486.65-23.6 486.25-23.6L486.25-23.6Q484.25-23.6 482.38-22.4 480.5-21.2 478.8-19.3L478.8-19.3 479.2-20.5 479.2-2.35 478.6-3.1 484.05-2.15 484.05 0ZM516.1-13.35L516.1-13.35 511.45-13.35 512.35-14.1 512.35-2.3 511.65-3.15 517.85-2.15 517.85 0 503.95 0 503.95-2.15 509-3.2 508.25-2.3 508.25-32.55 509.1-31.6 503.95-32.5 503.95-34.65 512.45-34.9 518.1-34.9Q521.95-34.9 524.45-33.6 526.95-32.3 528.2-30 529.45-27.7 529.45-24.65L529.45-24.65Q529.45-21.3 527.95-18.75 526.45-16.2 523.47-14.78 520.5-13.35 516.1-13.35ZM517.5-31.85L517.5-31.85 511.6-31.85 512.35-32.6 512.35-15.65 511.45-16.4 516.1-16.4Q520.5-16.4 522.87-18.6 525.25-20.8 525.25-24.55L525.25-24.55Q525.25-27.95 523.27-29.9 521.3-31.85 517.5-31.85ZM545.94 0L533.19 0 533.19-2.15 537.59-3.1 537.09-2.35 537.09-23.9 537.64-23.15 533.19-24.1 533.19-26.25 540.19-26.6 540.74-21.7 540.19-21.9Q542.44-24.25 544.59-25.55 546.74-26.85 549.29-26.85L549.29-26.85Q550.89-26.85 552.64-26.35L552.64-26.35 552.34-19.05 549.84-19.05 549.24-24.3 549.69-23.4Q549.34-23.5 548.94-23.55 548.54-23.6 548.14-23.6L548.14-23.6Q546.14-23.6 544.27-22.4 542.39-21.2 540.69-19.3L540.69-19.3 541.09-20.5 541.09-2.35 540.49-3.1 545.94-2.15 545.94 0ZM568.09-26.85L568.09-26.85Q573.59-26.85 576.72-23.4 579.84-19.95 579.84-13.65L579.84-13.65Q579.84-9.4 578.31-6.23 576.79-3.05 573.99-1.3 571.19 0.45 567.24 0.45L567.24 0.45Q561.84 0.45 558.79-2.93 555.74-6.3 555.74-12.65L555.74-12.65Q555.74-17.05 557.22-20.23 558.69-23.4 561.47-25.13 564.24-26.85 568.09-26.85ZM567.89-23.9L567.89-23.9Q564.04-23.9 561.99-21 559.94-18.1 559.94-12.85L559.94-12.85Q559.94-7.7 561.89-5.1 563.84-2.5 567.49-2.5L567.49-2.5Q570.14-2.5 571.97-3.83 573.79-5.15 574.72-7.6 575.64-10.05 575.64-13.45L575.64-13.45Q575.64-18.55 573.62-21.23 571.59-23.9 567.89-23.9ZM594.64 0.45L594.64 0.45Q592.84 0.45 590.81 0.2 588.79-0.05 586.54-0.55L586.54-0.55 586.54-36.25 587.34-35.1 582.64-36.1 582.64-38.25 590.54-38.6 590.54-22.15 589.99-22.75Q592.09-24.75 594.34-25.8 596.59-26.85 598.84-26.85L598.84-26.85Q601.64-26.85 603.86-25.3 606.09-23.75 607.39-20.8 608.69-17.85 608.69-13.55L608.69-13.55Q608.69-10.3 607.86-7.7 607.04-5.1 605.34-3.3 603.64-1.5 600.99-0.53 598.34 0.45 594.64 0.45ZM595.39-2.5L595.39-2.5Q599.84-2.5 602.19-5.25 604.54-8 604.54-13.25L604.54-13.25Q604.54-16.55 603.61-18.9 602.69-21.25 601.09-22.53 599.49-23.8 597.44-23.8L597.44-23.8Q595.69-23.8 593.81-22.88 591.94-21.95 590.04-20.05L590.04-20.05 590.54-21.5 590.54-2.2 589.99-3.3Q593.04-2.5 595.39-2.5ZM620.23-38.6L620.23-2.55 619.78-3.1 624.13-2.15 624.13 0 612.28 0 612.28-2.15 616.63-3.1 616.23-2.55 616.23-35.65 616.63-35.2 612.28-36.1 612.28-38.25 620.23-38.6ZM639.13 0.45L639.13 0.45Q635.78 0.45 633.21-1.07 630.63-2.6 629.18-5.55 627.73-8.5 627.73-12.75L627.73-12.75Q627.73-17.1 629.23-20.25 630.73-23.4 633.48-25.13 636.23-26.85 639.93-26.85L639.93-26.85Q643.43-26.85 645.71-25.38 647.98-23.9 649.11-21.3 650.23-18.7 650.23-15.35L650.23-15.35Q650.23-14.8 650.18-14.25 650.13-13.7 650.03-12.9L650.03-12.9 630.78-12.9 630.78-15.75 646.53-15.75 646.08-15.45Q646.13-17.7 645.53-19.6 644.93-21.5 643.48-22.65 642.03-23.8 639.63-23.8L639.63-23.8Q637.08-23.8 635.33-22.45 633.58-21.1 632.73-18.75 631.88-16.4 631.88-13.3L631.88-13.3Q631.88-10 632.83-7.63 633.78-5.25 635.61-3.95 637.43-2.65 640.08-2.65L640.08-2.65Q641.93-2.65 644.13-3.38 646.33-4.1 648.68-5.6L648.68-5.6 650.13-3.35Q647.33-1.45 644.53-0.5 641.73 0.45 639.13 0.45ZM678.63-21.85L678.63-21.85 678.08-21.75Q680.53-24.3 683.28-25.58 686.03-26.85 688.43-26.85L688.43-26.85Q691.48-26.85 693.55-24.83 695.63-22.8 695.63-18.6L695.63-18.6 695.63-2.4 695.13-3.1 699.53-2.15 699.53 0 687.93 0 687.93-2.15 692.18-3.1 691.63-2.35 691.63-17.7Q691.63-20.8 690.3-22.25 688.98-23.7 686.88-23.7L686.88-23.7Q685.08-23.7 682.9-22.65 680.73-21.6 678.63-19.45L678.63-19.45 678.98-20.4Q679.03-19.95 679.05-19.55 679.08-19.15 679.08-18.75L679.08-18.75 679.08-2.4 678.58-3.1 682.73-2.15 682.73 0 671.43 0 671.43-2.15 675.68-3.1 675.08-2.35 675.08-17.7Q675.08-20.8 673.75-22.25 672.43-23.7 670.33-23.7L670.33-23.7Q668.53-23.7 666.38-22.7 664.23-21.7 662.13-19.6L662.13-19.6 662.48-20.35 662.48-2.35 661.98-3.05 666.13-2.15 666.13 0 654.58 0 654.58-2.15 659.08-3.15 658.48-2.4 658.48-23.9 659.08-23.15 654.58-24.1 654.58-26.25 661.58-26.6 662.13-21.7 661.58-21.9Q664.03-24.45 666.75-25.65 669.48-26.85 671.93-26.85L671.93-26.85Q674.23-26.85 676.03-25.63 677.83-24.4 678.63-21.85Z" opacity="1" transform="matrix(1,0,0,1,0,0)" fill="#ffffff" class="slogan-text-1" data-fill-palette-color="secondary" id="text-1"></path></svg></g></svg></g></svg></g></svg></g><g></g></svg></g></svg></g></svg></g><g><path d="M91.055 64.012A122.216 122.216 0 0 1 304.465 64.012L299.112 64.012A116.863 116.863 0 0 0 96.408 64.012L91.055 64.012M91.055 183.188A122.216 122.216 0 0 0 304.465 183.188L299.112 183.188A116.863 116.863 0 0 1 96.408 183.188L91.055 183.188" fill="#ffffff" stroke="transparent" data-fill-palette-color="tertiary"></path></g></svg></g><defs></defs></svg><rect width="395.52" height="247.2" fill="none" stroke="none" visibility="hidden"></rect></g></svg></g></svg>